<svg xmlns="http://www.w3.org/2000/svg" width="558" height="267" viewBox="0 0 558 267" fill="none"><path d="M310.5 121.3l19.1-19.1 19.1-19.1004L386.9 121.3l-16 45.7-60.4-45.7z" fill="#00aac4"/><path d="M161.7 167l-16.1-45.7 38.2-38.2004L203 102.2l19.1 19.1L161.7 167z" fill="#00aac4"/><path d="M307.499 118.299l19.1-19.0996 19.1-19.1-38.2-38.2-38.2 38.2 19.1 19.1 19.1 19.0996z" fill="#009345"/><path d="M266.3 83.0996 247.2 102.2l-19.1 19.1 38.2 38.2 38.2-38.2-19.1-19.1-19.1-19.1004z" fill="#00aac4"/><path d="M266.364.637467 228.109 38.8916l38.254 38.2541 38.255-38.2541L266.364.637467z" fill="#4d186e"/><path d="M225.099 41.8994l-38.3 38.2 38.3 38.1996 19.1-19.0996 19.1-19.1-38.2-38.2z" fill="#009345"/><path d="M44.5996 253.599C40.6996 253.599 36.9996 252.999 33.2996 251.899 29.6996 250.799 26.3996 249.099 23.6996 246.999 20.9996 244.799 18.8996 242.399 17.4996 239.699 16.0996 236.999 15.3996 234.099 15.3996 230.999 15.3996 227.999 16.0996 225.099 17.4996 222.399 18.8996 219.599 20.9996 217.199 23.6996 215.099 26.3996 212.999 29.4996 211.399 32.9996 210.199 36.4996 208.999 40.1996 208.499 43.9996 208.499 47.8996 208.499 51.7996 209.099 55.6996 210.199 59.5996 211.399 62.8996 212.999 65.4996 215.099L65.5996 215.199 76.9996 206.099C72.8996 202.799 68.0996 200.199 62.5996 198.399 57.1996 196.599 51.3996 195.699 45.3996 195.699 39.2996 195.699 33.5996 196.599 28.1996 198.399 22.7996 200.199 17.9996 202.799 13.7996 206.099 9.49959 209.399 6.1996 213.199 3.9996 217.499 1.6996 221.799.599609 226.299.599609 230.999.599609 235.799 1.6996 240.399 3.9996 244.699 6.2996 248.999 9.59959 252.799 13.7996 256.099 17.8996 259.399 22.6996 261.999 28.1996 263.799 33.5996 265.599 39.3996 266.499 45.3996 266.499 51.4996 266.499 57.2996 265.599 62.7996 263.699v-14.8C60.6996 250.199 58.4996 251.199 55.9996 251.899 52.2996 252.999 48.4996 253.599 44.5996 253.599z" fill="#4d186e"/><path d="M79.0992 266.599h-13.4V256.899v-11V243.799h-20v-12.8h33.4v35.6z" fill="#009345"/><path d="M152.8 233.7C155.4 229.9 156.7 225.8 156.7 221.4 156.7 216.7 155.2 212.4 152.3 208.5 149.3 204.6 145.4 201.4 140.3 199.1 135.3 196.8 129.8 195.6 123.8 195.6H88.4004v70.7H104.6V247.4h19.2C124.9 247.4 126.4 247.3 128.3 247.2 129.9 251.3 132.1 254.8 134.9 257.6 140.1 262.8 146.6 265.7 154.6 266.3V252.1C151.1 251.3 148 249.6 145.5 247.1 144.6 246.2 143.6 244.8 142.3 242.9 146.7 240.5 150.2 237.5 152.8 233.7zM138.2 228C136.7 230 134.7 231.6 132.1 232.8 129.6 234 126.8 234.6 123.7 234.6H104.5V208.4h19.2C126.8 208.4 129.6 209 132.1 210.2 134.6 211.4 136.7 213 138.2 215S140.4 219.2 140.4 221.5 139.7 226 138.2 228z" fill="#4d186e"/><path d="M236.8 206C232.7 202.7 227.9 200.1 222.4 198.3 217 196.5 211.2 195.6 205.2 195.6S193.4 196.5 188 198.3C182.6 200.1 177.8 202.7 173.6 206 169.3 209.3 166 213 163.8 217.4 161.5 221.7 160.4 226.2 160.4 230.9 160.4 235.7 161.5 240.3 163.8 244.6 166.1 248.9 169.4 252.7 173.6 256 177.7 259.3 182.5 261.9 188 263.7 193.4 265.5 199.2 266.4 205.2 266.4S217 265.5 222.4 263.7 232.6 259.3 236.8 256C241.1 252.7 244.4 248.9 246.6 244.5 248.9 240.2 250 235.7 250 230.9 250 226.2 248.9 221.7 246.6 217.5 244.4 213.2 241.1 209.4 236.8 206zM230 242.3C227.5 245.8 224 248.5 219.6 250.6 215.2 252.6 210.4 253.7 205.3 253.7 200.1 253.7 195.4 252.7 191 250.6 186.6 248.6 183.1 245.8 180.6 242.3S176.7 235 176.7 230.9 178 223.1 180.6 219.6 186.7 213.4 191 211.4C195.4 209.4 200.1 208.4 205.3 208.4 210.5 208.4 215.2 209.4 219.6 211.4S227.4 216.1 230 219.6C232.5 223.1 233.8 226.8 233.8 230.9S232.5 238.9 230 242.3z" fill="#4d186e"/><path d="M367.4 236.799h26.9v-12H367.4v-17.4h28.8v-11.7H352.4v70.6h43.8v-11.8H367.4v-17.7z" fill="#4d186e"/><path d="M441.6 230.499l24.3-34.8H448.6l-15.8 22.9-15.8-22.9H399.6l24.6 35.1-24.5 35.5h17.1l16-23 15.9 23h17.1l-24.5-35.5L441.6 230.499z" fill="#4d186e"/><path d="M532 266.299l-24.4-35.5L507.8 230.499l24.3-34.8H514.9l-15.9 22.9-15.8-22.9H465.9l24.5 35.1-24.4 35.5h17l16-23 16 23h17z" fill="#4d186e"/><path d="M332.5 196.1l-13.8 52-13.7-52H290.5l-13.8 52-13.7-52H249.1l18.4 69.8H286l11.7-44.5 11.8 44.5h18.4l18.5-69.8H332.5z" fill="#4d186e"/><path d="M546.6 195.7c6.10000000000002.0 11 5 11 11.2C557.6 213.2 552.7 218.1 546.6 218.1S535.5 213.2 535.5 206.9C535.5 200.6 540.4 195.7 546.6 195.7zM546.5 197.4C541.6 197.4 537.6 201.6 537.6 206.8c0 5.29999999999998 4 9.5 9 9.5S555.5 212.1 555.5 206.9c0-5.30000000000001-4-9.5-9-9.5zM544.4 213.1h-2V200.6C543.4 200.5 544.4 200.3 545.9 200.3 547.8 200.3 549 200.7 549.8 201.2 550.6 201.7 550.9 202.6 550.9 203.8 550.9 205.4 549.8 206.4 548.5 206.8V206.9C549.6 207.1 550.3 208.1 550.6 209.9 550.9 211.8 551.2 212.6 551.4 213H549.3C549 212.6 548.7 211.5 548.5 209.8 548.2 208.2 547.4 207.6 545.8 207.6H544.4v5.5zM544.4 206.2H545.8C547.4 206.2 548.8 205.6 548.8 204.1 548.8 203 548 201.9 545.8 201.9 545.2 201.9 544.7 201.9 544.4 202V206.2z" fill="#4d186e"/></svg>